#!OML:ASF F:\VICON\USERDATA\INSTALL\rory3\rory3.ASF
:FULLY-SPECIFIED
:DEGREES
2055
root -4.06548 18.204 6.61213 -718.706 -174.819 723.542
lowerback 6.68585 -0.10111 -5.04715
upperback -4.36799 -0.684108 0.786952
thorax -8.32373 -0.0543197 3.77274
lowerneck -19.325 -4.13767 -16.6601
upperneck -14.6236 -4.27457 15.6956
head -0.597205 -2.44634 7.5267
rclavicle 3.13086e-015 -1.11319e-014
rhumerus 84.6335 -34.1138 -33.5602
rradius 33.0661
rwrist 5.61606
rhand -40.2864 -7.96097
rfingers 7.12502
rthumb -13.2439 -37.5202
lclavicle 3.13086e-015 -1.11319e-014
lhumerus 57.6057 19.0901 12.4865
lradius 34.0356
lwrist -9.29744
lhand -19.0497 27.5958
lfingers 7.12502
lthumb 7.25719 57.4513
rfemur -22.3702 4.43018 23.9828
rtibia 37.6514
rfoot 4.71223 3.63147
rtoes 14.9267
lfemur -9.35455 -3.56713 -19.2344
ltibia 40.2036
lfoot -4.69454 2.46259
ltoes -35.7178
2056
root -4.05754 18.2163 6.57029 -718.754 -174.429 723.367
lowerback 6.67499 -0.238534 -5.04303
upperback -4.33469 -0.873537 0.683482
thorax -8.26247 -0.152665 3.68497
lowerneck -19.1753 -4.12718 -16.5965
upperneck -14.7086 -4.29387 15.6027
head -0.646356 -2.46409 7.4876
rclavicle -1.01877e-014 1.74931e-014
rhumerus 84.8444 -34.2807 -33.5312
rradius 32.7885
rwrist 5.83152
rhand -40.3904 -7.80703
rfingers 7.12502
rthumb -13.3441 -37.3597
lclavicle -1.01877e-014 1.74931e-014
lhumerus 58.0407 19.4629 13.0332
lradius 33.6789
lwrist -9.11411
lhand -19.2686 28.191
lfingers 7.12502
lthumb 7.04589 58.0537
rfemur -22.5607 4.30032 24.0757
rtibia 37.9376
rfoot 5.44526 3.66668
rtoes 23.4264
lfemur -9.06945 -3.47361 -19.3358
ltibia 39.7996
lfoot -4.31079 2.13728
ltoes -35.6149
2057
root -4.04994 18.2272 6.53223 -718.776 -173.951 723.065
lowerback 6.65109 -0.409771 -5.13997
upperback -4.33306 -1.12394 0.547807
thorax -8.22256 -0.276013 3.62817
lowerneck -19.0301 -4.0862 -16.4815
upperneck -14.6855 -4.26919 15.4813
head -0.670909 -2.4546 7.43013
rclavicle 9.59136e-015 3.18055e-015
rhumerus 84.9766 -34.3699 -33.404
rradius 32.55
rwrist 6.00789
rhand -40.3207 -7.64958
rfingers 7.12502
rthumb -13.2769 -37.2067
lclavicle 9.59136e-015 3.18055e-015
lhumerus 58.5079 19.8562 13.5914
lradius 33.2844
lwrist -9.088
lhand -18.9042 28.3637
lfingers 7.12502
lthumb 7.39761 58.2143
rfemur -22.57 4.07783 23.9659
rtibia 38.4109
rfoot 4.24167 2.35737
rtoes 18.3853
lfemur -8.83656 -3.41333 -19.5628
ltibia 39.4614
lfoot -3.93689 1.71553
ltoes -35.3509
2058
root -4.03866 18.2379 6.49566 -718.916 -173.536 722.735
lowerback 6.7961 -0.537715 -5.28694
upperback -4.35337 -1.33414 0.389172
thorax -8.31004 -0.373197 3.57397
lowerneck -18.7516 -4.01438 -16.4292
upperneck -14.7881 -4.20298 15.4959
head -0.748818 -2.42814 7.43733
rclavicle -4.07509e-015 -2.06736e-014
rhumerus 85.1602 -34.3717 -33.5155
rradius 32.3474
rwrist 6.37281
rhand -40.0756 -7.42786
rfingers 7.12502
rthumb -13.0406 -37.0002
lclavicle -4.07509e-015 -2.06736e-014
lhumerus 59.1527 20.2039 14.319
lradius 32.8189
lwrist -9.2342
lhand -18.1667 28.104
lfingers 7.12502
lthumb 8.10946 57.9284
rfemur -22.4078 4.1784 23.7685
rtibia 38.9421
rfoot 3.67964 1.32801
rtoes 11.526
lfemur -8.48227 -3.23884 -19.8024
ltibia 39.1629
lfoot -3.55142 1.26158
ltoes -35.2364
2059
root -4.02547 18.2504 6.45395 -719.09 -173.146 722.468
lowerback 6.90825 -0.62474 -5.43263
upperback -4.36695 -1.48429 0.273835
thorax -8.37628 -0.440257 3.55659
lowerneck -18.4984 -4.02229 -16.5392
upperneck -14.8073 -4.19601 15.5876
head -0.782947 -2.41727 7.49033
rclavicle 5.31749e-015 -7.95139e-016
rhumerus 85.2719 -34.3971 -33.6044
rradius 32.2604
rwrist 6.64312
rhand -39.8244 -7.15958
rfingers 7.12502
rthumb -12.7985 -36.7473
lclavicle 5.31749e-015 -7.95139e-016
lhumerus 59.8843 20.4656 15.1828
lradius 32.4224
lwrist -9.21612
lhand -17.7735 28.4464
lfingers 7.12502
lthumb 8.48888 58.2558
rfemur -22.1646 4.45923 23.6221
rtibia 39.3918
rfoot 3.53494 0.808387
rtoes 9.78799
lfemur -8.13909 -2.98655 -19.9445
ltibia 38.867
lfoot -3.02132 0.631411
ltoes -35.4734
2060
root -4.01445 18.2653 6.40901 -719.275 -172.725 722.229
lowerback 6.96807 -0.705766 -5.52775
upperback -4.34084 -1.61335 0.17759
thorax -8.37087 -0.501566 3.52628
lowerneck -18.5143 -4.11474 -16.6182
upperneck -14.6198 -4.28001 15.5358
head -0.713314 -2.44082 7.47362
rclavicle 3.33958e-014 9.54166e-015
rhumerus 85.3515 -34.4595 -33.6035
rradius 32.2466
rwrist 6.8499
rhand -39.4846 -7.08697
rfingers 7.12502
rthumb -12.4709 -36.6949
lclavicle 3.33958e-014 9.54166e-015
lhumerus 60.5536 20.6983 15.9489
lradius 32.1593
lwrist -9.05613
lhand -17.8517 28.8915
lfingers 7.12502
lthumb 8.41344 58.7039
rfemur -21.8385 4.50886 23.4544
rtibia 39.6601
rfoot 3.40551 0.508795
rtoes 11.8409
lfemur -7.79012 -2.75642 -20.0475
ltibia 38.5819
lfoot -2.43945 -0.0167021
ltoes -35.7689
2061
root -4.00248 18.2875 6.36076 -719.492 -172.294 721.846
lowerback 7.04371 -0.779159 -5.78455
upperback -4.25257 -1.75155 0.0241266
thorax -8.30501 -0.562709 3.52661
lowerneck -18.6353 -4.18713 -16.3754
upperneck -14.5755 -4.42758 15.1782
head -0.685607 -2.52224 7.29925
rclavicle 4.77083e-015 2.38542e-015
rhumerus 85.2716 -34.6524 -33.3605
rradius 32.3115
rwrist 6.79697
rhand -39.1457 -7.02443
rfingers 7.12502
rthumb -12.1441 -36.652
lclavicle 4.77083e-015 2.38542e-015
lhumerus 60.9793 20.862 16.0943
lradius 32.0874
lwrist -8.30803
lhand -17.9059 29.0796
lfingers 7.12502
lthumb 8.36119 58.8942
rfemur -21.4793 4.33008 23.0926
rtibia 39.7415
rfoot 3.28956 0.34926
rtoes 10.7552
lfemur -7.39059 -2.50306 -20.2786
ltibia 38.3288
lfoot -1.81992 -0.73787
ltoes -35.6897
